<svg xmlns="http://www.w3.org/2000/svg" width="1000" height="666" viewBox="0 0 999 666" fill="none"><path fill="#fbfdfd" d="M490.398 111.54c-13.136 21.534-25.523 41.772-30.668 50.12-2.546 4.098-14.132 22.985-25.718 41.977-11.637 18.937-23.176 37.828-25.723 41.976-2.547 4.098-11.934 19.387-20.824 33.98a18673.332 18673.332 0 0 0-30.617 49.97c-7.891 12.894-20.727 33.832-28.47 46.476-22.773 37.18-84.151 137.422-92.144 150.414-19.18 31.235-25.972 42.328-25.972 42.527 0 .098 130.156.2 289.176.2 159.07 0 289.175-.102 289.175-.2 0-.152-9.289-15.39-28.718-47.023-2.547-4.148-6.543-10.695-8.942-14.594l-4.394-7.144-87.899-.102-87.851-.148-11.79-19.239c-6.492-10.593-14.683-23.937-18.18-29.683-3.542-5.7-6.339-10.547-6.241-10.746.101-.149 7.543-12.344 16.53-27.035 8.993-14.692 18.532-30.23 21.126-34.48 9.59-15.74 9.191-15.09 9.84-14.391.351.351 7.992 12.69 16.98 27.386 8.992 14.692 18.031 29.48 20.13 32.828l3.745 6.149h40.356c22.222 0 40.402-.102 40.402-.25 0-.149-6.39-10.645-14.133-23.387a64797.515 64797.515 0 0 1-35.16-57.316c-18.082-29.535-42.754-69.762-65.476-106.942-3.446-5.648-6.543-10.543-6.844-10.894-.45-.5-4.395 5.648-17.48 26.984-9.29 15.192-19.528 31.883-22.723 37.129-3.246 5.2-8.942 14.543-12.739 20.738-3.793 6.2-8.636 14.043-10.734 17.493-2.098 3.445-8.793 14.34-14.836 24.234-6.043 9.894-13.684 22.387-16.98 27.734-23.223 37.828-33.114 54.07-33.114 54.27 0 .152 4.598 7.746 10.14 16.84 13.235 21.539 41.255 67.312 50.392 82.304l7.195 11.742-15.535.352c-8.489.2-26.72.352-40.403.25l-24.972-.101-1.301-2.247c-.746-1.25-6.79-11.144-13.484-21.988-6.641-10.844-13.133-21.488-14.434-23.586l-2.297-3.898H371.23c-20.675 0-37.605-.102-37.605-.2 0-.152 8.738-14.542 19.477-31.984 20.726-33.828 20.828-33.98 32.316-52.77 4.094-6.745 14.531-23.734 23.121-37.726 8.59-14.043 21.477-35.031 28.57-46.726 7.141-11.692 13.832-22.586 14.883-24.235 1.047-1.648 6.242-10.094 11.535-18.742 5.246-8.645 11.34-18.637 13.536-22.137 51.093-83.351 63.878-104.441 63.68-104.941-.153-.348-7.345-11.492-16.032-24.836-8.64-13.34-17.781-27.434-20.277-31.379-2.5-3.898-4.747-7.098-4.997-7.098-.199 0-4.296 6.348-9.039 14.094Zm0 0"/></svg>