<svg xmlns="http://www.w3.org/2000/svg" version="1.1" xmlns:xlink="http://www.w3.org/1999/xlink" xmlns:svgjs="http://svgjs.com/svgjs" width="1024" height="768" preserveAspectRatio="none" viewBox="0 0 1024 768"><g mask="url(&quot;#SvgjsMask1004&quot;)" fill="none"><rect width="1024" height="768" x="0" y="0" fill="#0e2a47"></rect><path d="M0,408.879C79.807,413.769,156.175,389.278,229.096,356.48C312.307,319.054,418.603,291.266,451.074,205.999C483.702,120.319,413.523,31.951,385.981,-55.496C363.165,-127.938,343.87,-198.627,303.393,-262.892C256.822,-336.833,219.626,-439.18,133.84,-455.818C46.802,-472.699,-18.588,-375.864,-100.175,-341.164C-169.433,-311.707,-247.412,-311.127,-308.784,-267.563C-381.974,-215.611,-480.779,-159.169,-482.976,-69.442C-485.228,22.567,-370.651,69.527,-318.9,145.637C-278.194,205.504,-267.569,283.383,-211.738,329.47C-152.404,378.449,-76.794,404.174,0,408.879" fill="#0b2239"></path><path d="M1024 1174.674C1100.878 1176.532 1172.658 1141.554 1237.3 1099.901 1301.883 1058.286 1368.15 1009.255 1393.3519999999999 936.677 1417.866 866.078 1393.585 789.132 1369.813 718.28 1349.1680000000001 656.749 1303.368 611.3199999999999 1266.311 558.037 1224.093 497.334 1207.828 404.389 1136.923 383.42 1066.037 362.457 1001.151 429.93 933.4449999999999 459.598 875.129 485.151 813.981 502.303 767.1569999999999 545.4449999999999 716.422 592.19 675.384 648.865 656.125 715.108 635.017 787.712 623.36 867.865 653.2280000000001 937.326 683.319 1007.3050000000001 753.068 1048.684 817.223 1089.752 881.275 1130.755 947.97 1172.837 1024 1174.674" fill="#113255"></path></g><defs><mask id="SvgjsMask1004"><rect width="1024" height="768" fill="#ffffff"></rect></mask></defs></svg>